<?xml version="1.0" encoding="UTF-8"?>
<svg width="800px" height="800px" version="1.1" viewBox="0 0 512 512" xml:space="preserve" xmlns="http://www.w3.org/2000/svg">
<path d="m110.29 16.528s105.16-28.254 133.5 65.21c-1e-3 0-73.601 43.914-133.5-65.21z" fill="#008000"/>
<path d="m238.34 169.46c-1.457-3.58-34.538-88.393 45.793-169.46l22.745 22.534c-65.016 65.614-39.904 132.17-38.809 134.97l-29.729 11.953z" fill="#803300"/>
<path d="m360.2 109.62c-55.927 2.03-87.668 36.526-104.17 36.526s-48.244-34.496-104.17-36.526c-55.926-2.03-151.83 40.107-151.83 169.63s104.19 232.75 157.53 232.75 71.915-15.163 98.451-15.163 45.085 15.163 98.451 15.163 157.53-103.23 157.53-232.75-95.856-171.66-151.78-169.63z" fill="#E21B1B"/>
<g transform="matrix(.72298 0 0 .71391 68.553 135.97)" fill="#fff">
	<path d="m504.56 297.26c-4.745-7.638-11.463-13.868-19.446-18.003-1.687-0.89-3.531-1.694-5.498-2.426h-0.28c-2.326 0-4.551-0.703-6.424-2.003-3.504-0.768-7.1-1.156-10.711-1.156-11.499 0-22.288 3.804-31.211 10.997-2.002 1.615-4.515 2.505-7.084 2.505-3.439 0-6.647-1.529-8.801-4.2-1.895-2.347-2.764-5.29-2.44-8.291 0.315-3.008 1.787-5.7 4.134-7.602 12.792-10.322 28.907-16.007 45.381-16.007 5.255 0 10.509 0.574 15.663 1.723 9.648-7.638 15.749-18.47 17.271-30.759 0.244-1.938 0.366-3.891 0.366-5.822 0-11.255-4.121-22.166-11.607-30.694-7.545-8.585-17.946-14.098-29.295-15.506-1.378-0.172-2.77-0.286-4.156-0.33-1.02 1.156-2.082 2.297-3.18 3.403-4.451 4.479-9.935 8.542-16.775 12.44-5.154 2.922-10.998 5.678-17.365 8.191-11.032 4.343-19.675 6.417-19.761 6.432-0.833 0.201-1.723 0.302-2.613 0.302-5.233 0-9.741-3.546-10.982-8.629-0.711-2.942-0.23-5.972 1.342-8.542 1.529-2.519 3.919-4.299 6.762-5.046l0.222-0.05 2.053 5.334-1.414-5.506 2.032-0.553c1.823-0.517 4.407-1.299 7.465-2.332 5.527-1.888 13.674-5.025 21.097-9.246 4.896-2.778 9.009-5.786 11.88-8.685 1.644-1.666 3.252-3.503 4.788-5.477l0.732-0.905c7.056-9.324 11.14-21.046 11.133-32.582-0.014-11.916-4.221-22.92-12.167-31.836-9.44-10.566-22.985-16.632-37.17-16.632-12.239 0-24.012 4.493-33.142 12.648-2.074 1.852-4.745 2.871-7.523 2.871-3.223 0-6.296-1.378-8.435-3.782-2.002-2.247-3.014-5.147-2.85-8.155 0.173-3.015 1.508-5.779 3.755-7.789 4.895-4.371 10.315-8.033 16.15-10.918-1.436-10.789-6.374-20.824-14.141-28.591-9.411-9.411-21.915-14.587-35.21-14.593-13.302 6e-3 -25.806 5.182-35.216 14.593-9.404 9.404-14.579 21.916-14.586 35.209v81.187h46.4c6.23 0 11.298 5.075 11.298 11.298 0 6.23-5.068 11.299-11.298 11.299h-46.4v55.74c13.459 0.631 24.844 2.434 34.685 5.477 11.736 3.61 21.377 9.167 28.634 16.496 4.286 4.328 7.903 9.439 10.76 15.19 3.712 7.515 5.7 15.167 7.021 20.996 0.725 3.231 1.357 6.424 1.967 9.54 1.048 5.276 2.031 10.258 3.338 14.672 1.199 4.063 2.562 7.321 4.185 9.97 2.003 3.302 4.422 5.786 7.594 7.839 4.516 2.886 10.473 4.781 18.205 5.786 2.972 0.373 5.635 1.895 7.486 4.278 1.852 2.398 2.656 5.37 2.276 8.356-0.732 5.628-5.549 9.863-11.198 9.863l-1.465-0.101c-9.454-1.214-17.314-3.553-24.04-7.142-6.403-3.403-11.751-8.026-15.885-13.718-2.412-3.288-4.422-6.927-6.152-11.098-1.788-4.307-3.202-8.951-4.594-15.06-0.711-3.158-1.328-6.317-1.946-9.447-0.632-3.187-1.256-6.352-1.974-9.439-2.068-9.03-4.516-15.24-7.947-20.135-2.326-3.338-5.132-6.138-8.592-8.557-4.695-3.273-10.488-5.778-17.709-7.659-6.97-1.816-15.239-2.994-24.65-3.489v207.35c7e-3 13.294 5.183 25.806 14.579 35.217 9.418 9.404 21.922 14.579 35.224 14.586 13.294-6e-3 25.798-5.182 35.21-14.586 9.404-9.418 14.586-21.923 14.586-35.217 7e-3 -7.2-1.967-15.103-5.427-21.686-3.934-7.531-9.411-13.086-16.266-16.532-5.298-2.641-11.162-3.933-17.931-3.948-6.224 0-11.292-5.061-11.292-11.284 0-6.239 5.068-11.306 11.298-11.306 7.717 0 15.039 1.228 21.765 3.654 6.295 2.261 12.096 5.584 17.235 9.863 8.973 7.501 15.786 17.788 19.705 29.746 2.297 7.028 3.503 14.457 3.503 21.492 7e-3 5.613-0.639 11.183-1.916 16.625 5.212 1.78 10.732 2.713 16.187 2.713 12.188-7e-3 23.933-4.48 33.049-12.591 10.61-9.44 16.697-23.007 16.704-37.226 0-6.023-1.077-11.923-3.18-17.544-2.139-5.693-5.312-10.926-9.411-15.541-4.135-4.659-3.712-11.809 0.933-15.95 2.082-1.845 4.745-2.85 7.508-2.85 3.23 0 6.31 1.378 8.456 3.797l0.783 0.897 0.517 0.087c0.352 0.05 0.574 0.071 1.098 0.093 0.459 7e-3 1.098 0.014 1.981 0.014 13.294-7e-3 25.806-5.183 35.218-14.586 9.403-9.418 14.579-21.922 14.586-35.217-6e-3 -9.296-2.584-18.362-7.444-26.208z"/>
	<path d="m194.91 11.453c-13.302 6e-3 -25.806 5.182-35.217 14.593-7.767 7.767-12.706 17.81-14.141 28.584 5.822 2.886 11.241 6.539 16.144 10.918l0.797 0.783 0.826 0.947 1.658 1.823c1.5 1.622 3.682 3.948 6.352 6.618 4.831 4.853 12.232 11.845 20.078 17.637 5.204 3.848 10.078 6.762 14.112 8.435 2.8 1.163 4.752 1.557 5.9 1.687 3.008 0.337 5.7 1.823 7.58 4.177 1.888 2.355 2.742 5.305 2.404 8.306-0.639 5.728-5.462 10.05-11.219 10.05l-1.249-0.071c-3.862-0.431-7.81-1.508-12.074-3.281-3.546-1.472-7.164-3.366-11.077-5.8-6.137-3.826-12.763-8.88-19.69-15.01-10.142-8.987-17.902-17.587-19.898-19.841-9.08-7.903-20.674-12.253-32.697-12.253-14.178 7e-3 -27.723 6.066-37.155 16.632-8.162 9.124-12.648 20.903-12.655 33.142 0 8.312 2.074 16.453 6.022 23.739h0.136c3.726 0 7.473 0.28 11.127 0.847 6.166 0.962 10.394 6.74 9.446 12.892-0.869 5.549-5.556 9.576-11.155 9.576-0.574 0-1.163-0.044-1.751-0.13-2.498-0.394-5.083-0.588-7.667-0.588-0.596 0-1.184 7e-3 -1.788 0.021-12.964 0.467-25.081 5.872-34.097 15.225-8.987 9.332-13.933 21.592-13.933 34.513 0 0.596 7e-3 1.199 0.022 1.802 0.473 13.345 6.324 25.936 16.151 34.944 4.508-0.861 9.073-1.299 13.603-1.299 16.496 0 32.611 5.685 45.396 16.007l1.12 1.02 0.855 0.962c0.388 0.423 0.983 1.047 1.766 1.838 2.218 2.239 4.616 4.436 7.121 6.539 5.549 4.652 14.342 11.062 24.773 15.204 7.113 2.821 14.112 4.25 20.796 4.25 6.23 0 11.298 5.067 11.298 11.298s-5.068 11.299-11.298 11.299c-9.584-8e-3 -19.382-1.974-29.13-5.85-7.581-3.014-15.154-7.179-22.518-12.383-10.229-7.242-17.25-14.514-19.604-17.092-8.807-6.862-19.367-10.494-30.572-10.494-8.075 0-15.785 1.874-22.913 5.585-7.975 4.135-14.701 10.365-19.446 18.003-4.86 7.846-7.436 16.912-7.444 26.215 8e-3 13.287 5.183 25.792 14.586 35.209 9.411 9.404 21.922 14.579 35.217 14.586 1.644 0 2.434-7e-3 3.094-0.078l0.445-0.058 0.84-0.955c2.146-2.419 5.226-3.797 8.456-3.797 2.764 0 5.427 1.005 7.501 2.85 2.254 2.002 3.597 4.766 3.776 7.788 0.172 3.008-0.833 5.908-2.842 8.162-4.092 4.615-7.264 9.856-9.404 15.548-2.11 5.621-3.18 11.514-3.18 17.537 6e-3 14.213 6.094 27.78 16.696 37.226 9.124 8.111 20.868 12.584 33.056 12.591 5.456 0 10.976-0.933 16.187-2.713-1.278-5.427-1.917-10.997-1.917-16.625 0-8.995 1.91-18.276 5.513-26.868 4.049-9.662 10.164-18.083 17.688-24.356 2.031-1.694 4.601-2.627 7.235-2.627 3.368 0 6.525 1.479 8.679 4.063 3.977 4.781 3.338 11.916-1.435 15.908-4.76 3.962-8.679 9.404-11.342 15.756-2.419 5.764-3.754 12.203-3.747 18.126 0 13.294 5.182 25.798 14.586 35.217 9.411 9.404 21.916 14.579 35.217 14.586 13.294-6e-3 25.806-5.182 35.217-14.586 9.396-9.411 14.572-21.923 14.579-35.217v-90.54h-42.166c-6.223 0-11.291-5.061-11.291-11.292 0-6.23 5.068-11.299 11.291-11.299h42.166v-68.668c-4.796-2.21-10.036-3.374-15.334-3.38-3.718 0-7.436 0.574-11.047 1.694-9.447 3.266-18.972 4.96-28.139 4.96-17.45 0-33.35-6.202-44.864-17.458-10.948-10.681-17.236-25.411-17.242-40.421-7e-3 -13.344 4.751-26.1 13.782-36.889 2.153-2.585 5.312-4.056 8.671-4.056 2.642 0 5.212 0.934 7.236 2.627 4.781 3.999 5.42 11.127 1.436 15.908-5.642 6.776-8.513 14.32-8.52 22.418 0 8.937 3.797 17.78 10.422 24.248 7.408 7.2 17.465 11.012 29.087 11.026 6.676 0 13.76-1.285 21.046-3.811 6.123-1.924 12.11-2.836 18.14-2.836 5.204 0 10.33 0.675 15.326 2.032v-183.75c-8e-3 -13.294-5.183-25.806-14.579-35.209-9.411-9.412-21.923-14.587-35.217-14.594z"/>
</g></svg>
